<?xml version="1.0" encoding="UTF-8"?>
<!DOCTYPE svg PUBLIC "-//W3C//DTD SVG 1.1//EN" "http://www.w3.org/Graphics/SVG/1.1/DTD/svg11.dtd">
<svg version="1.1" xmlns="http://www.w3.org/2000/svg" xmlns:xlink="http://www.w3.org/1999/xlink" x="0px" y="0px" width="128" height="128" viewBox="0, 0, 128, 128">
  <g id="Background">
    <rect x="0" y="0" width="128" height="128" fill="#000000" fill-opacity="0"/>
  </g>
  <g id="Background">
    <path d="M18.093,6 L109.907,6 C116.561,6 122,11.439 122,18.093 L122,109.907 C122,116.561 116.561,122 109.907,122 L18.093,122 C11.439,122 6,116.561 6,109.907 L6,18.093 C6,11.439 11.439,6 18.093,6" fill="#727272"/>
    <path d="M20.669,32.548 L107.336,32.548 L107.336,36.028 L20.669,36.028 z M20.669,104.663 L107.336,104.663 L107.336,108.143 L20.669,108.143 z M20.669,80.623 L107.336,80.623 L107.336,84.103 L20.669,84.103 z M20.669,56.587 L107.336,56.587 L107.336,60.067 L20.669,60.067 z" fill="#EBECEC"/>
    <path d="M109.738,15.33 L109.546,40.297 L102.892,40.28 L88.616,112.934 L70.942,112.879 L64.493,72.234 L56.798,112.842 L38.818,112.788 L25.127,40.056 L18.262,40.033 L18.454,15.066 L48.606,15.156 L48.414,40.123 L43.837,40.11 L50.09,79.053 L57.351,40.151 L52.365,40.133 L52.556,15.17 L81.25,15.253 L81.058,40.22 L76.172,40.201 L82.442,78.002 L89.169,40.243 L84.392,40.225 L84.579,15.261 z" fill="#EBEDED"/>
  </g>
  <defs/>
</svg>
